<svg width="46" height="312" viewBox="0 0 46 312" fill="none" xmlns="http://www.w3.org/2000/svg">
<g filter="url(#filter0_d_1_254)">
<path d="M22.6465 293.354C22.8417 293.549 23.1583 293.549 23.3536 293.354L26.5355 290.172C26.7308 289.976 26.7308 289.66 26.5355 289.464C26.3403 289.269 26.0237 289.269 25.8284 289.464L23 292.293L20.1716 289.464C19.9763 289.269 19.6597 289.269 19.4645 289.464C19.2692 289.66 19.2692 289.976 19.4645 290.172L22.6465 293.354ZM22.5 19L22.5 19.9928L23.5 19.9928L23.5 19L22.5 19ZM22.5 21.9783L22.5 23.9638L23.5 23.9638L23.5 21.9783L22.5 21.9783ZM22.5 25.9493L22.5 27.9348L23.5 27.9348L23.5 25.9493L22.5 25.9493ZM22.5 29.9203L22.5 31.9058L23.5 31.9058L23.5 29.9203L22.5 29.9203ZM22.5 33.8913L22.5 35.8768L23.5 35.8768L23.5 33.8913L22.5 33.8913ZM22.5 37.8623L22.5 39.8478L23.5 39.8478L23.5 37.8623L22.5 37.8623ZM22.5 41.8333L22.5 43.8188L23.5 43.8188L23.5 41.8333L22.5 41.8333ZM22.5 45.8043L22.5 47.7899L23.5 47.7899L23.5 45.8043L22.5 45.8043ZM22.5 49.7754L22.5 51.7609L23.5 51.7609L23.5 49.7754L22.5 49.7754ZM22.5 53.7464L22.5 55.7319L23.5 55.7319L23.5 53.7464L22.5 53.7464ZM22.5 57.7174L22.5 59.7029L23.5 59.7029L23.5 57.7174L22.5 57.7174ZM22.5 61.6884L22.5 63.6739L23.5 63.6739L23.5 61.6884L22.5 61.6884ZM22.5 65.6594L22.5 67.6449L23.5 67.6449L23.5 65.6594L22.5 65.6594ZM22.5 69.6304L22.5 71.6159L23.5 71.6159L23.5 69.6304L22.5 69.6304ZM22.5 73.6015L22.5 75.587L23.5 75.587L23.5 73.6015L22.5 73.6015ZM22.5 77.5725L22.5 79.558L23.5 79.558L23.5 77.5725L22.5 77.5725ZM22.5 81.5435L22.5 83.529L23.5 83.529L23.5 81.5435L22.5 81.5435ZM22.5 85.5145L22.5 87.5L23.5 87.5L23.5 85.5145L22.5 85.5145ZM22.5 89.4855L22.5 91.471L23.5 91.471L23.5 89.4855L22.5 89.4855ZM22.5 93.4565L22.5 95.442L23.5 95.442L23.5 93.4565L22.5 93.4565ZM22.5 97.4275L22.5 99.413L23.5 99.413L23.5 97.4275L22.5 97.4275ZM22.5 101.399L22.5 103.384L23.5 103.384L23.5 101.399L22.5 101.399ZM22.5 105.37L22.5 107.355L23.5 107.355L23.5 105.37L22.5 105.37ZM22.5 109.341L22.5 111.326L23.5 111.326L23.5 109.341L22.5 109.341ZM22.5 113.312L22.5 115.297L23.5 115.297L23.5 113.312L22.5 113.312ZM22.5 117.283L22.5 119.268L23.5 119.268L23.5 117.283L22.5 117.283ZM22.5 121.254L22.5 123.239L23.5 123.239L23.5 121.254L22.5 121.254ZM22.5 125.225L22.5 127.21L23.5 127.21L23.5 125.225L22.5 125.225ZM22.5 129.196L22.5 131.181L23.5 131.181L23.5 129.196L22.5 129.196ZM22.5 133.167L22.5 135.152L23.5 135.152L23.5 133.167L22.5 133.167ZM22.5 137.138L22.5 139.123L23.5 139.123L23.5 137.138L22.5 137.138ZM22.5 141.109L22.5 143.094L23.5 143.094L23.5 141.109L22.5 141.109ZM22.5 145.08L22.5 147.065L23.5 147.065L23.5 145.08L22.5 145.08ZM22.5 149.051L22.5 151.036L23.5 151.036L23.5 149.051L22.5 149.051ZM22.5 153.022L22.5 155.007L23.5 155.007L23.5 153.022L22.5 153.022ZM22.5 156.993L22.5 158.978L23.5 158.978L23.5 156.993L22.5 156.993ZM22.5 160.964L22.5 162.949L23.5 162.949L23.5 160.964L22.5 160.964ZM22.5 164.935L22.5 166.92L23.5 166.92L23.5 164.935L22.5 164.935ZM22.5 168.906L22.5 170.891L23.5 170.891L23.5 168.906L22.5 168.906ZM22.5 172.877L22.5 174.862L23.5 174.862L23.5 172.877L22.5 172.877ZM22.5 176.848L22.5 178.833L23.5 178.833L23.5 176.848L22.5 176.848ZM22.5 180.819L22.5 182.804L23.5 182.804L23.5 180.819L22.5 180.819ZM22.5 184.79L22.5 186.775L23.5 186.775L23.5 184.79L22.5 184.79ZM22.5 188.761L22.5 190.746L23.5 190.746L23.5 188.761L22.5 188.761ZM22.5 192.732L22.5 194.717L23.5 194.717L23.5 192.732L22.5 192.732ZM22.5 196.703L22.5 198.688L23.5 198.688L23.5 196.703L22.5 196.703ZM22.5 200.674L22.5 202.659L23.5 202.659L23.5 200.674L22.5 200.674ZM22.5 204.645L22.5 206.63L23.5 206.63L23.5 204.645L22.5 204.645ZM22.5 208.616L22.5 210.601L23.5 210.601L23.5 208.616L22.5 208.616ZM22.5 212.587L22.5 214.572L23.5 214.572L23.5 212.587L22.5 212.587ZM22.5 216.558L22.5 218.543L23.5 218.543L23.5 216.558L22.5 216.558ZM22.5 220.529L22.5 222.514L23.5 222.514L23.5 220.529L22.5 220.529ZM22.5 224.5L22.5 226.485L23.5 226.485L23.5 224.5L22.5 224.5ZM22.5 228.471L22.5 230.456L23.5 230.456L23.5 228.471L22.5 228.471ZM22.5 232.442L22.5 234.427L23.5 234.427L23.5 232.442L22.5 232.442ZM22.5 236.413L22.5 238.398L23.5 238.398L23.5 236.413L22.5 236.413ZM22.5 240.384L22.5 242.369L23.5 242.369L23.5 240.384L22.5 240.384ZM22.5 244.355L22.5 246.34L23.5 246.34L23.5 244.355L22.5 244.355ZM22.5 248.326L22.5 250.311L23.5 250.311L23.5 248.326L22.5 248.326ZM22.5 252.297L22.5 254.282L23.5 254.282L23.5 252.297L22.5 252.297ZM22.5 256.268L22.5 258.253L23.5 258.253L23.5 256.268L22.5 256.268ZM22.5 260.239L22.5 262.224L23.5 262.224L23.5 260.239L22.5 260.239ZM22.5 264.21L22.5 266.195L23.5 266.195L23.5 264.21L22.5 264.21ZM22.5 268.181L22.5 270.166L23.5 270.166L23.5 268.181L22.5 268.181ZM22.5 272.152L22.5 274.137L23.5 274.137L23.5 272.152L22.5 272.152ZM22.5 276.123L22.5 278.108L23.5 278.108L23.5 276.123L22.5 276.123ZM22.5 280.094L22.5 282.079L23.5 282.079L23.5 280.094L22.5 280.094ZM22.5 284.065L22.5 286.05L23.5 286.05L23.5 284.065L22.5 284.065ZM22.5 288.036L22.5 290.021L23.5 290.021L23.5 288.036L22.5 288.036ZM22.5 292.007L22.5 293L23.5 293L23.5 292.007L22.5 292.007Z" fill="#1A1A1A"/>
</g>
<defs>
<filter id="filter0_d_1_254" x="0.818115" y="0.5" width="44.3638" height="311.5" filterUnits="userSpaceOnUse" color-interpolation-filters="sRGB">
<feFlood flood-opacity="0" result="BackgroundImageFix"/>
<feColorMatrix in="SourceAlpha" type="matrix" values="0 0 0 0 0 0 0 0 0 0 0 0 0 0 0 0 0 0 127 0" result="hardAlpha"/>
<feOffset/>
<feGaussianBlur stdDeviation="9.25"/>
<feComposite in2="hardAlpha" operator="out"/>
<feColorMatrix type="matrix" values="0 0 0 0 1 0 0 0 0 1 0 0 0 0 1 0 0 0 0.25 0"/>
<feBlend mode="normal" in2="BackgroundImageFix" result="effect1_dropShadow_1_254"/>
<feBlend mode="normal" in="SourceGraphic" in2="effect1_dropShadow_1_254" result="shape"/>
</filter>
</defs>
</svg>
