<svg width="395" height="142" viewBox="0 0 395 142" fill="none" xmlns="http://www.w3.org/2000/svg">
<path d="M10.9225 124.487V124.69L11.0635 124.835L25.8319 140.066H22.9401L9.33203 126.055L9.01947 125.734L8.66577 126.01L3.64846 129.924L3.45604 130.075V130.319V140.06H1.14874V112.453H3.45604V126.642V127.675L4.26627 127.034L22.6959 112.453H25.9301L11.1137 124.088L10.9225 124.238V124.481V124.487Z" fill="#1A1A1A" stroke="#1A1A1A"/>
<path d="M38.1942 133.044H37.8778L37.7423 133.33L34.5705 140.022H32.0505L45.3606 112.459H48.1593L61.4693 140.022H58.9493L55.7775 133.33L55.332 133.541V133.044H55.3257H54.5354H38.1942ZM53.8662 130.987H54.6558L54.3182 130.274L47.2151 115.253L46.7631 114.297L46.3111 115.253L39.2079 130.274L38.8704 130.987H39.6599H53.86H53.8662Z" fill="#1A1A1A" stroke="#1A1A1A"/>
<path d="M72.4698 137.972H91.2748V140.028H69.7063V112.465H71.9698V137.472V137.972H72.4698Z" fill="#1A1A1A" stroke="#1A1A1A"/>
<path d="M116.841 112.453L104.63 129.33H104.379V129.83V140.022H102.115V130.074V129.913L102.021 129.781L89.496 112.453H92.0591L102.846 127.268L103.255 127.83L103.657 127.264L114.2 112.453H116.841Z" fill="#1A1A1A" stroke="#1A1A1A"/>
<path d="M123.532 133.044H123.216L123.081 133.33L119.909 140.022H117.389L130.699 112.459H133.498L146.808 140.022H144.288L141.116 133.33L140.67 133.541V133.044H140.664H139.874H123.532ZM139.198 130.987H139.988L139.65 130.274L132.547 115.253L132.095 114.297L131.643 115.253L124.54 130.274L124.202 130.987H124.992H139.192H139.198Z" fill="#1A1A1A" stroke="#1A1A1A"/>
<path d="M179.774 136.651V112.459H182.081V140.022H178.409L158.239 115.351L157.352 114.266V115.667V140.022H155.045V112.459H158.675L178.888 136.969L179.774 138.043V136.651Z" fill="#1A1A1A" stroke="#1A1A1A"/>
<path d="M233.341 112.459H237.097V140.022H234.833V116.488L233.882 116.272L222.549 140.022H220.117L208.746 116.029L207.794 116.243V140.022H205.531V112.459H209.406L220.94 136.902L221.393 137.862L221.844 136.901L233.341 112.459Z" fill="#1A1A1A" stroke="#1A1A1A"/>
<path d="M251.471 133.044H251.154L251.019 133.33L247.847 140.022H245.327L258.637 112.459H261.436L274.746 140.022H272.226L269.054 133.33L268.609 133.541V133.044H268.602H267.812H251.471ZM267.143 130.987H267.932L267.595 130.274L260.492 115.253L260.04 114.297L259.588 115.253L252.485 130.274L252.147 130.987H252.937H267.137H267.143Z" fill="#1A1A1A" stroke="#1A1A1A"/>
<path d="M282.989 112.459H285.253V140.022H282.989V112.459Z" fill="#1A1A1A" stroke="#1A1A1A"/>
<path d="M294.141 136.639L295.175 134.43C298.339 136.675 302.316 138.454 307.1 138.454C310.383 138.454 313.051 137.951 314.917 136.923C316.813 135.879 317.885 134.285 317.885 132.198C317.885 131.367 317.701 130.635 317.261 130.005C316.824 129.38 316.168 128.903 315.305 128.518C313.603 127.757 310.946 127.293 307.12 126.847L307.12 126.847C302.901 126.359 299.755 125.652 297.671 124.48C296.639 123.9 295.885 123.214 295.387 122.4C294.89 121.587 294.627 120.614 294.627 119.426C294.627 117.072 295.667 115.24 297.669 113.973C299.699 112.688 302.744 111.971 306.737 111.971C310.979 111.971 315.61 113.157 318.488 114.829L317.665 117.042C314.963 115.386 310.957 114.034 306.737 114.034C303.254 114.034 300.831 114.556 299.262 115.491C297.655 116.449 296.972 117.827 296.972 119.388C296.972 120.058 297.121 120.687 297.502 121.259C297.879 121.826 298.458 122.296 299.251 122.697C300.821 123.49 303.347 124.068 307.209 124.539L307.209 124.539C311.908 125.109 315.183 125.776 317.282 126.919C318.318 127.482 319.046 128.151 319.519 128.965C319.994 129.78 320.236 130.779 320.236 132.041C320.236 134.508 319.041 136.605 316.816 138.104C314.577 139.613 311.288 140.517 307.15 140.517C302.537 140.517 297.661 139.048 294.141 136.639Z" fill="#1A1A1A" stroke="#1A1A1A"/>
<path d="M327.556 126.322C327.556 122.091 328.994 118.513 331.555 115.993C334.116 113.472 337.84 111.971 342.484 111.971C347.128 111.971 350.819 113.473 353.348 115.993C355.878 118.513 357.287 122.091 357.287 126.322C357.287 130.552 355.868 134.088 353.335 136.567C350.801 139.047 347.109 140.511 342.484 140.511C337.859 140.511 334.134 139.046 331.569 136.565C329.004 134.085 327.556 130.548 327.556 126.322ZM354.936 126.366C354.936 122.844 353.743 119.755 351.563 117.543C349.383 115.33 346.25 114.034 342.44 114.034C338.631 114.034 335.488 115.33 333.296 117.542C331.106 119.753 329.901 122.843 329.901 126.366C329.901 129.886 331.073 132.919 333.253 135.071C335.433 137.224 338.577 138.454 342.44 138.454C346.305 138.454 349.438 137.213 351.607 135.054C353.775 132.895 354.936 129.864 354.936 126.366Z" fill="#1A1A1A" stroke="#1A1A1A"/>
<path d="M392.193 136.651V112.459H394.5V140.022H390.827L370.658 115.351L369.771 114.266V115.667V140.022H367.463V112.459H371.093L391.307 136.969L392.193 138.043V136.651Z" fill="#1A1A1A" stroke="#1A1A1A"/>
<path d="M199.918 48.9741L214.453 63.5093V63.5155L214.599 63.662L216.495 65.5582H197.507V63.8084H211.069H212.276L211.423 62.9549L197.317 48.8487L196.734 48.2662L196.588 48.1198H196.381H184.091H183.591V48.6198V65.552H181.829V28.9377H183.591V45.8699V46.3699H184.091H196.406H196.613L196.759 46.2235L211.442 31.5411L212.295 30.6876H211.088H197.507V28.9377H216.514L214.618 30.834L214.618 30.8341L199.942 45.5164L199.942 45.5165L198.551 46.907L198.197 47.2613L198.552 47.6149L199.917 48.9733L199.918 48.9741ZM230.994 83.3031L230.994 83.3032C227.187 89.9008 220.086 94.0022 212.466 94.0022H183.183C175.563 94.0022 168.462 89.9008 164.655 83.3032L164.655 83.3031L150.017 57.9473C150.017 57.9472 150.017 57.9472 150.017 57.9472C146.21 51.3494 146.21 43.1528 150.017 36.5551C150.017 36.555 150.017 36.555 150.017 36.555L164.655 11.1991L164.655 11.199C168.462 4.60142 175.563 0.5 183.183 0.5H212.466C220.086 0.5 227.187 4.60142 230.994 11.199L230.994 11.1991L245.632 36.555C245.632 36.555 245.632 36.555 245.632 36.5551C249.439 43.1528 249.439 51.3494 245.632 57.9472C245.632 57.9472 245.632 57.9472 245.632 57.9473L230.994 83.3031ZM245.396 57.8145L245.396 57.8143C249.156 51.2957 249.156 43.2066 245.396 36.694L238.461 24.6814C238.22 24.2306 237.965 23.7882 237.695 23.3548L230.757 11.3381L230.324 11.5881L230.757 11.3381C226.997 4.82558 219.986 0.777819 212.466 0.777819H198.475C198.041 0.765291 197.607 0.765291 197.173 0.777819H183.183C175.657 0.777819 168.651 4.82565 164.892 11.3381L165.325 11.5881L164.892 11.3381L157.954 23.3548C157.684 23.7882 157.428 24.2306 157.188 24.6814L150.253 36.694L150.253 36.6942C146.493 43.2128 146.493 51.3019 150.253 57.8145L157.188 69.8271C157.428 70.2778 157.684 70.7203 157.954 71.1537L164.892 83.1704L165.325 82.9204L164.892 83.1704C168.651 89.6829 175.663 93.7307 183.183 93.7307H197.076C197.326 93.739 197.577 93.7432 197.828 93.7432C198.078 93.7432 198.329 93.739 198.579 93.7307H212.466C219.992 93.7307 226.997 89.6828 230.757 83.1704L237.695 71.1536C237.965 70.7203 238.22 70.2779 238.461 69.8272L245.396 57.8145ZM240.097 59.3058C240.097 62.8577 239.206 66.2968 237.586 69.3421L236.837 70.6388C235.009 73.5658 232.475 76.0579 229.398 77.8333L229.398 77.8334L208.52 89.885L208.213 90.0625C205.214 91.7257 201.902 92.6167 198.562 92.7307H197.093C193.636 92.6127 190.209 91.6623 187.128 89.8849L166.251 77.8334L166.251 77.8333C163.174 76.0579 160.64 73.5658 158.811 70.6388L158.063 69.342C156.443 66.2968 155.552 62.8577 155.552 59.3058V35.2027C155.552 31.6508 156.443 28.2118 158.063 25.1665L158.811 23.8696C160.64 20.9426 163.174 18.4506 166.251 16.6752L166.251 16.6751L187.128 4.62357C190.238 2.82933 193.703 1.88075 197.188 1.77782H198.461C201.946 1.88075 205.411 2.82933 208.521 4.62357L229.398 16.6751L229.398 16.6752C232.475 18.4506 235.009 20.9427 236.837 23.8697L237.586 25.1665C239.206 28.2117 240.097 31.6508 240.097 35.2027V59.3058ZM208.388 4.8599L208.388 4.85981C205.128 2.97983 201.478 2.03685 197.828 2.03685C194.177 2.03685 190.527 2.97983 187.267 4.85981L187.267 4.8599L166.39 16.9115L166.39 16.9115C159.877 20.6714 155.83 27.6828 155.83 35.2027V59.3058C155.83 66.832 159.878 73.8371 166.39 77.597L166.64 77.164L166.39 77.597L187.267 89.6486L187.267 89.6487C193.786 93.4084 201.875 93.4085 208.388 89.6486L229.265 77.597L229.015 77.164L229.265 77.597C235.778 73.8371 239.825 66.8257 239.825 59.3058V35.2027C239.825 27.6765 235.777 20.6714 229.265 16.9115L229.015 17.3445L229.265 16.9115L208.388 4.8599Z" fill="#1A1A1A" stroke="#1A1A1A"/>
</svg>
