<svg width="109" height="101" viewBox="0 0 109 101" fill="none" xmlns="http://www.w3.org/2000/svg">
<path d="M72.9351 67.0851L75.8489 69.999H53.9187V67.0851H68.8198L53.8722 52.1375L53.2549 51.5202H40.2321V69.9923H37.305V30.1342H40.2321V48.6063H53.2814L68.8397 33.0481H53.9187V30.1342H75.8688L72.955 33.0481L57.4033 48.6063L55.9298 50.0799L57.3768 51.5202L72.9351 67.0785V67.0851ZM90.3917 88.5375L105.903 61.6689C110.032 54.5137 110.032 45.6261 105.903 38.4709L90.3917 11.6023C86.2631 4.44712 78.5637 0 70.3 0H39.2697C31.006 0 23.3066 4.44712 19.178 11.6023L3.66621 38.4709C-0.462306 45.6261 -0.462306 54.5137 3.66621 61.6689L19.178 88.5375C23.3066 95.6927 31.006 100.14 39.2697 100.14H70.3C78.5637 100.14 86.2631 95.6927 90.3917 88.5375ZM70.3 1.35405C78.0791 1.35405 85.3339 5.5423 89.2235 12.2794L104.735 39.1479C108.625 45.885 108.625 54.2548 104.735 60.9985L89.2235 87.8671C85.3339 94.6042 78.0858 98.7924 70.3 98.7924H39.2697C31.4906 98.7924 24.2358 94.6042 20.3462 87.8671L4.83441 60.9985C0.944839 54.2615 0.944839 45.8916 4.83441 39.1479L20.3462 12.2794C24.2358 5.5423 31.4839 1.35405 39.2697 1.35405H70.3ZM66.3839 95.706L88.5066 82.9354C95.6618 78.8069 100.109 71.1074 100.109 62.8438V37.3027C100.109 29.039 95.6618 21.3395 88.5066 17.211L66.3839 4.44048C59.2287 0.311962 50.341 0.311962 43.1858 4.44048L21.0631 17.211C13.9079 21.3395 9.46074 29.039 9.46074 37.3027V62.8438C9.46074 71.1074 13.9079 78.8069 21.0631 82.9354L43.1858 95.706C46.7634 97.7702 50.7725 98.8057 54.7882 98.8057C58.8039 98.8057 62.8129 97.7702 66.3905 95.706H66.3839ZM65.7135 5.60868L87.8362 18.3792C94.5733 22.2688 98.7615 29.5169 98.7615 37.3027V62.8438C98.7615 70.6229 94.5733 77.8777 87.8362 81.7672L65.7135 94.5378C58.9764 98.4273 50.6065 98.4273 43.8628 94.5378L21.7401 81.7672C15.003 77.8777 10.8148 70.6295 10.8148 62.8438V37.3027C10.8148 29.5236 15.003 22.2688 21.7401 18.3792L43.8628 5.60868C47.2347 3.66389 51.0114 2.68818 54.7882 2.68818C58.5649 2.68818 62.3416 3.66389 65.7135 5.60868Z" fill="#1A1A1A"/>
</svg>
